<svg width="1728" height="1133" viewBox="0 0 1728 1133" fill="none" xmlns="http://www.w3.org/2000/svg">
<path d="M0 837.429C27.8004 964.783 233.243 1205.23 420.286 1112.05C607.33 1018.87 844.946 1013.65 940.373 1022.69C1090.78 1016.83 1416.04 979.41 1513.87 876.589C1611.71 773.768 1697.39 726.307 1728 715.429V0H0V837.429Z" fill="url(#paint0_linear_1_8)" stroke="black"/>
<path d="M710.174 1031.03C755.645 1003.75 747.913 922.897 803.214 906.143C820.894 900.787 838.609 904.598 856.097 908.628C877.295 913.513 886.805 900.167 901.061 882.623C928.832 848.449 949.157 807.514 976.568 773.304C999.092 745.192 1023.14 734.154 1055.18 730.57C1092.94 726.349 1117.67 710.618 1145.26 679.555C1164.04 658.401 1180.11 634.294 1203.65 619.926C1244.7 594.874 1268.83 643.97 1295.84 670.279C1316.25 690.149 1339.11 704.504 1365.98 706.388C1389.28 708.021 1416.98 694.917 1438.66 709.038C1455.56 720.05 1476.6 745.924 1465.95 769.826C1454.7 795.041 1445.58 807.644 1463.26 834.589C1479.15 858.809 1505.5 869.693 1519.82 895.543C1533.7 920.594 1540.47 962.635 1515.58 982.335C1491.78 1001.17 1459.3 992.755 1433.14 988.63C1423.2 987.062 1420.84 1004.87 1417.16 1013.14C1392.5 1068.64 1338.63 1089.63 1287.08 1081.39C1250 1075.46 1222.97 1054.29 1184.71 1056.87C1143.12 1059.68 1108.89 1087.94 1069.04 1098.28C1047.48 1103.88 1030.91 1101.01 1010.79 1090.16C996.01 1082.2 981.969 1068.54 965.256 1066.81C911.568 1061.25 864.377 1120.93 811.132 1102.26C773.621 1089.1 741.866 1055.78 710.174 1031.03Z" fill="white" fill-opacity="0.5"/>
<path d="M0 1092.98C44.6368 1067.47 37.0465 991.844 91.3335 976.174C108.689 971.164 126.08 974.728 143.246 978.498C164.056 983.067 173.391 970.584 187.386 954.175C214.648 922.211 234.6 883.924 261.508 851.927C283.62 825.633 307.223 815.308 338.683 811.957C375.744 808.008 400.021 793.295 427.102 764.241C445.544 744.455 461.319 721.907 484.428 708.469C524.724 685.037 548.408 730.957 574.929 755.565C594.959 774.15 617.4 787.577 643.776 789.338C666.648 790.865 693.847 778.61 715.122 791.817C731.713 802.117 752.374 826.318 741.911 848.673C730.872 872.258 721.914 884.046 739.274 909.248C754.878 931.901 780.738 942.081 794.796 966.259C808.419 989.69 815.065 1029.01 790.631 1047.44C767.27 1065.06 735.39 1057.18 709.708 1053.32C699.947 1051.86 697.632 1068.52 694.023 1076.25C669.808 1128.16 616.931 1147.79 566.323 1140.08C529.927 1134.53 503.387 1114.74 465.828 1117.15C425.002 1119.78 391.403 1146.21 352.286 1155.88C331.117 1161.12 314.857 1158.44 295.099 1148.29C280.593 1140.84 266.811 1128.07 250.404 1126.45C197.7 1121.25 151.375 1177.07 99.1065 1159.6C62.2836 1147.29 31.1102 1116.13 0 1092.98Z" fill="white" fill-opacity="0.78"/>
<path d="M1274.77 879.977C1291.81 916.631 1327.2 947.211 1365.06 958.37L1713 869.629C1730.39 832.893 1753.56 794.602 1764.73 755.955C1774.6 721.836 1775.09 685.197 1744.38 668.885C1721.5 656.727 1698.75 661.52 1672.96 667.903C1645.43 674.718 1623.42 689.739 1596.74 681.096C1555.69 667.796 1589.67 670.643 1541.04 658.747C1487.67 645.693 1411.31 652.616 1388.38 724.178C1381.6 745.337 1385.57 765.456 1379.88 786.133C1377.36 795.306 1368.04 792.017 1362.77 791.07C1343.51 787.611 1325.47 784.51 1304.86 791.534C1263.85 805.505 1259.28 846.679 1274.77 879.977Z" fill="white" fill-opacity="0.74"/>
<ellipse cx="123.863" cy="214.378" rx="8.57181" ry="10.0411" fill="#F8FFCE"/>
<path d="M123.863 226.419C129.986 226.419 134.434 220.719 134.434 214.378C134.434 208.036 129.986 202.337 123.863 202.337C117.739 202.337 113.291 208.036 113.291 214.378C113.291 220.719 117.739 226.419 123.863 226.419Z" stroke="#F5FF84" stroke-opacity="0.4" stroke-width="4"/>
<ellipse cx="248.154" cy="448.336" rx="8.57181" ry="10.0411" fill="#F8FFCE"/>
<path d="M248.154 460.377C254.278 460.377 258.726 454.677 258.726 448.336C258.726 441.994 254.278 436.294 248.154 436.294C242.03 436.294 237.582 441.994 237.582 448.336C237.582 454.677 242.03 460.377 248.154 460.377Z" stroke="#F5FF84" stroke-opacity="0.4" stroke-width="4"/>
<ellipse cx="835.323" cy="234.46" rx="8.57181" ry="10.0411" fill="#F8FFCE"/>
<path d="M835.323 246.501C841.446 246.501 845.894 240.802 845.894 234.46C845.894 228.118 841.446 222.419 835.323 222.419C829.199 222.419 824.751 228.118 824.751 234.46C824.751 240.802 829.199 246.501 835.323 246.501Z" stroke="#F5FF84" stroke-opacity="0.4" stroke-width="4"/>
<ellipse cx="1186.77" cy="194.295" rx="8.57181" ry="10.0411" fill="#F8FFCE"/>
<path d="M1186.77 206.337C1192.89 206.337 1197.34 200.637 1197.34 194.295C1197.34 187.954 1192.89 182.254 1186.77 182.254C1180.64 182.254 1176.19 187.954 1176.19 194.295C1176.19 200.637 1180.64 206.337 1186.77 206.337Z" stroke="#F5FF84" stroke-opacity="0.4" stroke-width="4"/>
<ellipse cx="1417.35" cy="323.826" rx="8.57181" ry="10.0411" fill="#F8FFCE"/>
<path d="M1417.35 335.867C1423.47 335.867 1427.92 330.167 1427.92 323.826C1427.92 317.484 1423.47 311.785 1417.35 311.785C1411.22 311.785 1406.78 317.484 1406.78 323.826C1406.78 330.167 1411.22 335.867 1417.35 335.867Z" stroke="#F5FF84" stroke-opacity="0.4" stroke-width="4"/>
<ellipse cx="818.179" cy="501.553" rx="8.57181" ry="10.0411" fill="#F8FFCE"/>
<path d="M818.179 513.595C824.303 513.595 828.751 507.895 828.751 501.553C828.751 495.212 824.303 489.512 818.179 489.512C812.055 489.512 807.607 495.212 807.607 501.553C807.607 507.895 812.055 513.595 818.179 513.595Z" stroke="#F5FF84" stroke-opacity="0.4" stroke-width="4"/>
<ellipse cx="317.585" cy="576.862" rx="8.57181" ry="10.0411" fill="#F8FFCE"/>
<path d="M317.585 588.903C323.709 588.903 328.157 583.203 328.157 576.862C328.157 570.52 323.709 564.821 317.585 564.821C311.462 564.821 307.014 570.52 307.014 576.862C307.014 583.203 311.462 588.903 317.585 588.903Z" stroke="#F5FF84" stroke-opacity="0.4" stroke-width="4"/>
<ellipse cx="334.729" cy="133.045" rx="8.57181" ry="10.0411" fill="#F8FFCE"/>
<path d="M334.729 145.086C340.853 145.086 345.301 139.386 345.301 133.045C345.301 126.703 340.853 121.004 334.729 121.004C328.605 121.004 324.157 126.703 324.157 133.045C324.157 139.386 328.605 145.086 334.729 145.086Z" stroke="#F5FF84" stroke-opacity="0.4" stroke-width="4"/>
<path d="M1032.47 313.785C1032.47 319.33 1028.64 323.826 1023.9 323.826C1019.17 323.826 1015.33 319.33 1015.33 313.785C923.754 200.511 927.518 195.929 1023.9 303.744C1028.64 303.744 1032.47 308.239 1032.47 313.785Z" fill="#F8FFCE"/>
<path d="M951.044 225.982C951.044 225.982 951.045 225.985 951.046 225.99C951.045 225.985 951.044 225.982 951.044 225.982ZM1023.9 325.826C1030.03 325.826 1034.47 320.126 1034.47 313.785C1034.47 307.77 1030.47 302.334 1024.84 301.788C1001.01 275.144 982.869 255.401 970.464 242.512C964.218 236.023 959.4 231.244 956.03 228.192C954.356 226.676 952.983 225.533 951.942 224.818C951.439 224.473 950.901 224.148 950.379 223.958C950.123 223.865 949.732 223.752 949.278 223.767C948.775 223.784 948.106 223.97 947.602 224.567C947.145 225.108 947.063 225.713 947.056 226.067C947.048 226.436 947.115 226.774 947.184 227.034C947.323 227.558 947.571 228.138 947.864 228.726C948.46 229.926 949.422 231.527 950.712 233.497C953.305 237.457 957.366 243.122 962.883 250.468C973.855 265.08 990.666 286.451 1013.35 314.516C1013.68 320.558 1018.02 325.826 1023.9 325.826Z" stroke="#F5FF84" stroke-opacity="0.4" stroke-width="4"/>
<path fill-rule="evenodd" clip-rule="evenodd" d="M1610 651C1691.74 651 1758 588.768 1758 512C1758 435.232 1691.74 373 1610 373C1528.26 373 1462 435.232 1462 512C1462 588.768 1528.26 651 1610 651ZM1658 546C1648.88 536.347 1648.88 521.653 1658 512C1667.65 501.779 1684.35 501.779 1694 512C1703.12 521.653 1703.12 536.347 1694 546C1684.35 556.221 1667.65 556.221 1658 546ZM1513.5 567.5C1518.59 561.832 1527.91 561.832 1533 567.5C1537.56 572.586 1537.56 579.914 1533 585C1527.91 590.668 1518.59 590.668 1513.5 585C1508.94 579.914 1508.94 572.586 1513.5 567.5ZM1520.5 471.5C1509.94 460.8 1509.94 443.7 1520.5 433C1531.2 422.161 1548.8 422.161 1559.5 433C1570.06 443.7 1570.06 460.8 1559.5 471.5C1548.8 482.339 1531.2 482.339 1520.5 471.5Z" fill="#D9D9D9"/>
<path d="M1520.5 433C1509.94 443.7 1509.94 460.8 1520.5 471.5C1531.2 482.339 1548.8 482.339 1559.5 471.5C1570.06 460.8 1570.06 443.7 1559.5 433C1548.8 422.161 1531.2 422.161 1520.5 433Z" fill="#E3E1E1"/>
<path d="M1658 512C1648.88 521.653 1648.88 536.347 1658 546C1667.65 556.221 1684.35 556.221 1694 546C1703.12 536.347 1703.12 521.653 1694 512C1684.35 501.779 1667.65 501.779 1658 512Z" fill="#E3E1E1"/>
<path d="M1513.5 567.5C1518.59 561.832 1527.91 561.832 1533 567.5C1537.56 572.586 1537.56 579.914 1533 585C1527.91 590.668 1518.59 590.668 1513.5 585C1508.94 579.914 1508.94 572.586 1513.5 567.5Z" fill="#E3E1E1"/>
<path d="M1755.5 512C1755.5 587.241 1690.51 648.5 1610 648.5C1529.49 648.5 1464.5 587.241 1464.5 512C1464.5 436.759 1529.49 375.5 1610 375.5C1690.51 375.5 1755.5 436.759 1755.5 512ZM1659.82 544.283C1651.61 535.594 1651.61 522.406 1659.82 513.717C1668.48 504.54 1683.52 504.54 1692.18 513.717C1700.39 522.406 1700.39 535.594 1692.18 544.283C1683.52 553.46 1668.48 553.46 1659.82 544.283ZM1656.18 510.283C1646.16 520.9 1646.16 537.1 1656.18 547.717C1666.82 558.982 1685.18 558.982 1695.82 547.717C1705.84 537.1 1705.84 520.9 1695.82 510.283C1685.18 499.018 1666.82 499.018 1656.18 510.283ZM1515.36 569.17C1519.45 564.609 1527.05 564.609 1531.14 569.17C1534.85 573.306 1534.85 579.194 1531.14 583.33C1527.05 587.891 1519.45 587.891 1515.36 583.33C1511.65 579.194 1511.65 573.306 1515.36 569.17ZM1534.86 565.83C1528.78 559.056 1517.72 559.056 1511.64 565.83C1506.22 571.866 1506.22 580.634 1511.64 586.67C1517.72 593.444 1528.78 593.444 1534.86 586.67C1540.28 580.634 1540.28 571.866 1534.86 565.83ZM1522.28 469.744C1512.68 460.017 1512.68 444.483 1522.28 434.756C1532 424.909 1548 424.909 1557.72 434.756C1567.32 444.483 1567.32 460.017 1557.72 469.744C1548 479.591 1532 479.591 1522.28 469.744ZM1518.72 431.244C1507.2 442.917 1507.2 461.583 1518.72 473.256C1530.4 485.087 1549.6 485.087 1561.28 473.256C1572.8 461.583 1572.8 442.917 1561.28 431.244C1549.6 419.413 1530.4 419.413 1518.72 431.244Z" stroke="#EDEDED" stroke-opacity="0.56" stroke-width="5"/>
<defs>
<linearGradient id="paint0_linear_1_8" x1="664.868" y1="-185.258" x2="868.572" y2="1029.93" gradientUnits="userSpaceOnUse">
<stop stop-color="#50557A"/>
<stop offset="1" stop-color="#040A46"/>
</linearGradient>
</defs>
</svg>
